<svg xmlns="http://www.w3.org/2000/svg" xmlns:xlink="http://www.w3.org/1999/xlink" width="300" zoomAndPan="magnify" viewBox="0 0 224.87999 74.999997" height="100" preserveAspectRatio="xMidYMid meet" version="1.0"><defs><g/><clipPath id="8bd3a34d6a"><path d="M 7.554688 38.019531 L 64.625 38.019531 L 64.625 72.425781 L 7.554688 72.425781 Z M 7.554688 38.019531 " clip-rule="nonzero"/></clipPath><clipPath id="bdf83b8776"><path d="M 49 49 L 70.460938 49 L 70.460938 54.621094 L 49 54.621094 Z M 49 49 " clip-rule="nonzero"/></clipPath><clipPath id="96ae9ae78d"><path d="M 1.609375 49 L 24 49 L 24 55 L 1.609375 55 Z M 1.609375 49 " clip-rule="nonzero"/></clipPath></defs><path fill="#ff914d" d="M 27.726562 16.195312 C 27.660156 17.269531 26.554688 18.074219 25.773438 18.65625 C 24.828125 19.363281 23.878906 20.089844 22.839844 20.648438 C 22.023438 21.089844 18.574219 22.949219 16.050781 25.714844 C 15.625 26.1875 12.714844 29.378906 11.46875 31.511719 C 11.253906 31.878906 10.480469 33.261719 9.511719 33.222656 L 9.453125 33.214844 C 9.28125 33.191406 8.933594 32.988281 7.679688 31.511719 C 5.492188 28.941406 3.886719 25.859375 3.5 22.480469 C 3.320312 20.914062 3.417969 20.691406 4.304688 12.6875 C 5.042969 5.992188 5.023438 5.246094 5.90625 4.605469 C 8.488281 2.71875 14.019531 5.214844 17.351562 6.714844 C 18.269531 7.128906 19.046875 7.554688 19.203125 7.632812 C 21.746094 8.976562 24.671875 10.613281 26.632812 13.707031 C 27.390625 14.902344 27.773438 15.5 27.726562 16.195312 " fill-opacity="1" fill-rule="nonzero"/><path fill="#ff914d" d="M 23.902344 17.6875 C 21.496094 16.863281 18.203125 15.453125 14.785156 12.960938 C 11.796875 10.78125 10.796875 9.292969 9.542969 9.65625 C 7.253906 10.320312 6.371094 16.5 7.917969 21.367188 C 8.941406 24.589844 10.878906 26.773438 12.179688 27.996094 C 12.179688 27.996094 12.71875 27.558594 12.441406 25.699219 C 12.441406 25.699219 13.0625 25.492188 13.40625 26.867188 C 13.40625 26.867188 15.339844 21.84375 12.027344 20.257812 C 12.027344 20.257812 16.648438 20.191406 17.335938 23.425781 C 17.335938 23.425781 20.234375 20.78125 17.476562 18.800781 C 17.476562 18.800781 19.269531 18.125 20.507812 19.226562 C 20.796875 19.277344 21.617188 19.382812 22.511719 18.949219 C 23.328125 18.558594 23.75 17.9375 23.902344 17.6875 " fill-opacity="1" fill-rule="nonzero"/><path fill="#ff914d" d="M 44.441406 16.195312 C 44.511719 17.269531 45.617188 18.074219 46.398438 18.65625 C 47.34375 19.363281 48.292969 20.089844 49.332031 20.648438 C 50.148438 21.089844 53.597656 22.949219 56.117188 25.714844 C 56.546875 26.1875 59.457031 29.378906 60.703125 31.511719 C 60.914062 31.878906 61.691406 33.261719 62.65625 33.222656 L 62.71875 33.214844 C 62.890625 33.191406 63.234375 32.988281 64.492188 31.511719 C 66.675781 28.941406 68.28125 25.859375 68.671875 22.480469 C 68.851562 20.914062 68.753906 20.691406 67.867188 12.6875 C 67.128906 5.992188 67.148438 5.246094 66.265625 4.605469 C 63.683594 2.71875 58.152344 5.214844 54.820312 6.714844 C 53.902344 7.128906 53.121094 7.554688 52.96875 7.632812 C 50.421875 8.976562 47.5 10.613281 45.539062 13.707031 C 44.777344 14.902344 44.398438 15.5 44.441406 16.195312 " fill-opacity="1" fill-rule="nonzero"/><path fill="#ff914d" d="M 48.269531 17.6875 C 50.675781 16.863281 53.96875 15.453125 57.386719 12.960938 C 60.375 10.78125 61.375 9.292969 62.625 9.65625 C 64.917969 10.320312 65.800781 16.5 64.253906 21.367188 C 63.230469 24.589844 61.292969 26.773438 59.992188 27.996094 C 59.992188 27.996094 59.453125 27.558594 59.730469 25.699219 C 59.730469 25.699219 59.109375 25.492188 58.765625 26.867188 C 58.765625 26.867188 56.832031 21.84375 60.144531 20.257812 C 60.144531 20.257812 55.523438 20.191406 54.835938 23.425781 C 54.835938 23.425781 51.9375 20.78125 54.695312 18.800781 C 54.695312 18.800781 52.902344 18.125 51.660156 19.226562 C 51.375 19.277344 50.554688 19.382812 49.660156 18.949219 C 48.84375 18.558594 48.421875 17.9375 48.269531 17.6875 " fill-opacity="1" fill-rule="nonzero"/><g clip-path="url(#8bd3a34d6a)"><path fill="#ffffff" d="M 63.765625 49.53125 C 63.226562 48.109375 62.246094 46.796875 61.316406 45.601562 C 55.410156 38 44.015625 38.304688 35.367188 38.21875 C 28.15625 38.148438 20.457031 38.714844 14.183594 42.621094 C 11.476562 44.304688 8.386719 47.28125 7.777344 50.550781 C 7.179688 53.71875 9.640625 56.597656 11.550781 58.820312 C 14.355469 62.085938 16.851562 66.101562 20.457031 68.550781 C 24.246094 71.125 28.761719 72.425781 33.34375 72.425781 L 38.859375 72.425781 C 43.574219 72.425781 48.25 71.066406 52.082031 68.3125 C 53.292969 67.441406 59.679688 60.027344 60.492188 59.074219 C 62.027344 57.273438 63.488281 55.242188 64.046875 52.902344 C 64.328125 51.71875 64.167969 50.59375 63.765625 49.53125 " fill-opacity="1" fill-rule="nonzero"/></g><path fill="#ff914d" d="M 51.867188 65.632812 C 51.429688 65.78125 50.984375 65.90625 50.535156 66.011719 C 50.085938 66.109375 49.636719 66.207031 49.183594 66.253906 C 48.722656 66.324219 48.285156 66.347656 47.839844 66.382812 L 47.121094 66.398438 L 46.945312 66.402344 L 46.878906 66.402344 L 46.792969 66.398438 L 46.449219 66.378906 C 44.625 66.292969 42.820312 65.949219 41.128906 65.289062 C 39.429688 64.664062 37.824219 63.757812 36.425781 62.636719 L 36.164062 62.429688 L 36.570312 59.746094 L 36.664062 59.710938 C 36.875 59.625 37.101562 59.535156 37.332031 59.433594 C 37.566406 59.332031 37.808594 59.21875 38.054688 59.097656 L 38.121094 59.066406 C 38.34375 58.957031 38.570312 58.835938 38.800781 58.710938 C 39.226562 58.476562 39.660156 58.214844 40.105469 57.914062 C 40.195312 57.855469 40.289062 57.792969 40.378906 57.722656 L 40.449219 57.671875 C 40.558594 57.597656 40.667969 57.519531 40.777344 57.433594 C 41.210938 57.117188 41.640625 56.761719 42.070312 56.371094 C 42.785156 55.71875 43.410156 55.042969 43.953125 54.363281 C 44.15625 54.105469 44.347656 53.84375 44.53125 53.585938 C 44.652344 53.417969 44.769531 53.246094 44.882812 53.074219 C 45.445312 52.21875 45.894531 51.371094 46.257812 50.566406 C 46.328125 50.410156 46.394531 50.25 46.464844 50.09375 C 46.691406 49.546875 46.878906 49.023438 47.03125 48.542969 C 47.050781 48.484375 47.066406 48.425781 47.082031 48.367188 L 47.082031 48.363281 C 47.105469 48.246094 47.128906 48.128906 47.140625 48.011719 C 47.210938 47.070312 46.707031 46.167969 45.867188 45.726562 C 45.710938 45.640625 45.542969 45.574219 45.371094 45.527344 C 45.058594 45.441406 44.734375 45.359375 44.398438 45.277344 C 44.066406 45.195312 43.71875 45.117188 43.363281 45.042969 C 42.648438 44.894531 41.894531 44.757812 41.101562 44.644531 C 40.972656 44.621094 40.855469 44.605469 40.722656 44.585938 C 40.621094 44.578125 40.519531 44.5625 40.421875 44.546875 C 39.105469 44.386719 37.691406 44.273438 36.191406 44.261719 L 35.503906 44.261719 C 34 44.273438 32.585938 44.386719 31.273438 44.546875 L 31.191406 44.5625 C 31.054688 44.578125 30.921875 44.597656 30.796875 44.613281 L 30.792969 44.613281 C 29.542969 44.785156 28.386719 45.015625 27.335938 45.269531 C 26.988281 45.351562 26.648438 45.4375 26.324219 45.527344 C 26.191406 45.5625 26.0625 45.613281 25.941406 45.667969 C 25.699219 45.777344 25.480469 45.929688 25.292969 46.105469 C 25.199219 46.199219 25.117188 46.289062 25.039062 46.394531 L 25.035156 46.394531 C 24.917969 46.546875 24.824219 46.710938 24.746094 46.886719 C 24.722656 46.945312 24.699219 47.003906 24.679688 47.066406 C 24.515625 47.527344 24.5 48.039062 24.660156 48.542969 C 24.703125 48.683594 24.753906 48.820312 24.800781 48.964844 C 24.925781 49.324219 25.070312 49.703125 25.230469 50.09375 C 25.332031 50.328125 25.433594 50.566406 25.550781 50.8125 C 25.699219 51.136719 25.867188 51.46875 26.050781 51.800781 C 26.140625 51.972656 26.234375 52.136719 26.335938 52.308594 C 26.585938 52.730469 26.859375 53.160156 27.164062 53.585938 C 27.34375 53.84375 27.539062 54.105469 27.742188 54.363281 C 27.878906 54.53125 28.015625 54.703125 28.164062 54.871094 C 28.457031 55.210938 28.769531 55.546875 29.105469 55.878906 C 29.273438 56.042969 29.445312 56.207031 29.621094 56.371094 C 29.746094 56.480469 29.871094 56.59375 29.992188 56.695312 C 30.113281 56.804688 30.234375 56.90625 30.359375 57.003906 C 30.453125 57.078125 30.542969 57.152344 30.636719 57.222656 C 30.730469 57.296875 30.824219 57.367188 30.917969 57.433594 C 31.027344 57.519531 31.136719 57.597656 31.242188 57.671875 L 31.316406 57.722656 C 31.40625 57.792969 31.5 57.855469 31.589844 57.914062 C 32.0625 58.230469 32.523438 58.503906 32.964844 58.746094 C 33.066406 58.800781 33.164062 58.855469 33.265625 58.90625 C 33.390625 58.972656 33.515625 59.035156 33.640625 59.097656 C 33.761719 59.160156 33.886719 59.214844 34.007812 59.273438 C 34.125 59.328125 34.246094 59.382812 34.363281 59.433594 C 34.480469 59.484375 34.589844 59.53125 34.703125 59.578125 C 34.816406 59.625 34.925781 59.667969 35.03125 59.710938 L 35.125 59.746094 L 35.53125 62.445312 L 35.308594 62.609375 C 34.570312 63.152344 33.773438 63.625 32.949219 64.046875 C 32.125 64.464844 31.257812 64.796875 30.382812 65.089844 C 29.941406 65.230469 29.5 65.371094 29.046875 65.46875 C 28.597656 65.585938 28.140625 65.664062 27.6875 65.742188 C 27.230469 65.796875 26.757812 65.871094 26.3125 65.894531 C 25.871094 65.941406 25.390625 65.957031 24.894531 65.953125 C 24.449219 65.960938 23.972656 65.921875 23.511719 65.886719 C 23.046875 65.839844 22.585938 65.777344 22.121094 65.695312 C 21.660156 65.609375 21.199219 65.519531 20.746094 65.386719 C 20.285156 65.273438 19.839844 65.117188 19.386719 64.96875 C 18.488281 64.660156 17.613281 64.265625 16.761719 63.828125 C 15.910156 63.375 15.074219 62.882812 14.289062 62.300781 C 15.621094 63.738281 17.261719 64.894531 19.046875 65.777344 C 19.496094 65.996094 19.953125 66.195312 20.425781 66.367188 C 20.890625 66.554688 21.375 66.699219 21.859375 66.84375 C 22.34375 66.980469 22.835938 67.09375 23.335938 67.175781 C 23.839844 67.253906 24.332031 67.328125 24.859375 67.359375 C 25.335938 67.398438 25.828125 67.421875 26.359375 67.414062 C 26.886719 67.429688 27.378906 67.363281 27.890625 67.328125 C 28.394531 67.261719 28.902344 67.203125 29.402344 67.097656 C 29.902344 67.011719 30.394531 66.878906 30.890625 66.746094 C 32.636719 66.253906 34.292969 65.476562 35.816406 64.484375 L 35.84375 64.503906 L 35.847656 64.535156 L 35.851562 64.507812 C 37.289062 65.546875 38.867188 66.367188 40.539062 66.941406 C 42.441406 67.5625 44.449219 67.914062 46.445312 67.828125 L 46.816406 67.820312 L 46.910156 67.816406 L 47.023438 67.808594 L 47.199219 67.792969 L 47.914062 67.726562 C 48.414062 67.644531 48.929688 67.585938 49.40625 67.453125 C 49.894531 67.347656 50.367188 67.191406 50.835938 67.039062 C 51.304688 66.871094 51.765625 66.691406 52.210938 66.484375 C 53.097656 66.050781 53.941406 65.550781 54.71875 64.96875 C 55.503906 64.390625 56.207031 63.726562 56.878906 63.046875 C 55.285156 64.117188 53.640625 65.070312 51.867188 65.632812 " fill-opacity="1" fill-rule="nonzero"/><path fill="#ffffff" d="M 33.007812 61.328125 C 33.007812 61.933594 32.640625 62.476562 32.074219 62.691406 C 28.511719 64.042969 15.652344 67.664062 9.222656 52.664062 C 9.859375 50.890625 20.914062 49.96875 23.65625 49.550781 C 24.136719 50.863281 24.859375 52.425781 25.964844 54.046875 C 28.027344 57.074219 30.511719 58.972656 32.320312 60.09375 C 32.75 60.359375 33.007812 60.824219 33.007812 61.328125 " fill-opacity="1" fill-rule="nonzero"/><path fill="#ffffff" d="M 38.53125 61.328125 C 38.53125 61.933594 38.898438 62.476562 39.464844 62.691406 C 43.027344 64.042969 55.886719 67.664062 62.3125 52.664062 C 61.679688 50.890625 50.625 49.96875 47.882812 49.550781 C 47.398438 50.863281 46.675781 52.425781 45.574219 54.046875 C 43.511719 57.074219 41.027344 58.972656 39.214844 60.09375 C 38.785156 60.359375 38.53125 60.824219 38.53125 61.328125 " fill-opacity="1" fill-rule="nonzero"/><g clip-path="url(#bdf83b8776)"><path fill="#ff914d" d="M 49.339844 53.589844 C 49.339844 53.589844 49.628906 53.402344 50.136719 53.070312 C 50.652344 52.746094 51.398438 52.300781 52.332031 51.835938 C 53.265625 51.371094 54.382812 50.890625 55.617188 50.480469 C 56.226562 50.273438 56.886719 50.09375 57.539062 49.933594 C 58.195312 49.773438 58.882812 49.625 59.5625 49.523438 C 62.292969 49.082031 65.070312 49.171875 67.105469 49.464844 C 68.125 49.609375 68.964844 49.785156 69.546875 49.921875 C 70.125 50.070312 70.457031 50.152344 70.457031 50.152344 C 70.457031 50.152344 70.125 50.082031 69.539062 49.960938 C 68.949219 49.847656 68.105469 49.707031 67.089844 49.609375 C 65.054688 49.402344 62.300781 49.429688 59.644531 49.980469 C 58.976562 50.109375 58.328125 50.273438 57.683594 50.460938 C 57.035156 50.652344 56.421875 50.84375 55.828125 51.074219 C 54.644531 51.523438 53.578125 52.035156 52.695312 52.523438 C 51.808594 53.011719 51.105469 53.472656 50.621094 53.804688 C 50.140625 54.148438 49.867188 54.347656 49.867188 54.347656 L 49.859375 54.351562 C 49.652344 54.5 49.363281 54.453125 49.214844 54.246094 C 49.066406 54.039062 49.113281 53.75 49.320312 53.601562 L 49.339844 53.589844 " fill-opacity="1" fill-rule="nonzero"/></g><path fill="#ff914d" d="M 50.414062 56.273438 C 50.414062 56.273438 53.269531 56.699219 56.171875 56.535156 C 59.070312 56.429688 61.917969 55.734375 61.917969 55.734375 C 61.917969 55.734375 59.136719 56.652344 56.210938 56.996094 C 54.753906 57.179688 53.277344 57.25 52.171875 57.246094 C 51.066406 57.246094 50.328125 57.195312 50.328125 57.195312 L 50.3125 57.191406 C 50.058594 57.175781 49.867188 56.953125 49.886719 56.699219 C 49.902344 56.445312 50.125 56.253906 50.378906 56.273438 L 50.414062 56.273438 " fill-opacity="1" fill-rule="nonzero"/><path fill="#ff914d" d="M 48.996094 59.375 C 48.996094 59.375 51.035156 60.304688 53.257812 60.722656 C 55.46875 61.191406 57.761719 61.113281 57.761719 61.113281 C 57.761719 61.113281 55.492188 61.421875 53.191406 61.175781 C 52.046875 61.070312 50.90625 60.855469 50.0625 60.636719 C 49.21875 60.425781 48.671875 60.238281 48.671875 60.238281 L 48.652344 60.234375 C 48.410156 60.152344 48.285156 59.886719 48.367188 59.648438 C 48.449219 59.40625 48.710938 59.277344 48.953125 59.359375 L 48.996094 59.375 " fill-opacity="1" fill-rule="nonzero"/><g clip-path="url(#96ae9ae78d)"><path fill="#ff914d" d="M 22.304688 54.347656 C 22.304688 54.347656 22.03125 54.148438 21.546875 53.804688 C 21.0625 53.472656 20.359375 53.011719 19.476562 52.523438 C 18.59375 52.035156 17.527344 51.523438 16.34375 51.074219 C 15.75 50.84375 15.136719 50.652344 14.488281 50.460938 C 13.839844 50.273438 13.195312 50.109375 12.527344 49.980469 C 9.867188 49.429688 7.117188 49.402344 5.082031 49.609375 C 4.0625 49.707031 3.222656 49.847656 2.632812 49.960938 C 2.046875 50.082031 1.714844 50.152344 1.714844 50.152344 C 1.714844 50.152344 2.042969 50.070312 2.625 49.921875 C 3.207031 49.785156 4.046875 49.609375 5.066406 49.464844 C 7.101562 49.171875 9.878906 49.082031 12.609375 49.523438 C 13.289062 49.625 13.976562 49.773438 14.632812 49.933594 C 15.285156 50.09375 15.945312 50.273438 16.554688 50.480469 C 17.789062 50.890625 18.90625 51.371094 19.839844 51.835938 C 20.769531 52.300781 21.519531 52.746094 22.035156 53.070312 C 22.542969 53.402344 22.832031 53.589844 22.832031 53.589844 C 23.046875 53.730469 23.109375 54.015625 22.96875 54.230469 C 22.828125 54.441406 22.542969 54.5 22.328125 54.363281 L 22.3125 54.351562 L 22.304688 54.347656 " fill-opacity="1" fill-rule="nonzero"/></g><path fill="#ff914d" d="M 21.84375 57.195312 C 21.84375 57.195312 21.105469 57.246094 20 57.246094 C 18.890625 57.25 17.417969 57.179688 15.960938 56.996094 C 13.035156 56.652344 10.253906 55.734375 10.253906 55.734375 C 10.253906 55.734375 13.101562 56.429688 16 56.535156 C 18.902344 56.699219 21.757812 56.273438 21.757812 56.273438 C 22.007812 56.238281 22.242188 56.410156 22.28125 56.664062 C 22.320312 56.917969 22.144531 57.152344 21.894531 57.1875 L 21.859375 57.191406 L 21.84375 57.195312 " fill-opacity="1" fill-rule="nonzero"/><path fill="#ff914d" d="M 23.5 60.238281 C 23.5 60.238281 22.953125 60.425781 22.105469 60.636719 C 21.265625 60.855469 20.125 61.070312 18.980469 61.175781 C 16.679688 61.421875 14.410156 61.113281 14.410156 61.113281 C 14.410156 61.113281 16.703125 61.191406 18.914062 60.722656 C 21.136719 60.304688 23.175781 59.375 23.175781 59.375 C 23.410156 59.269531 23.683594 59.375 23.789062 59.605469 C 23.894531 59.835938 23.792969 60.109375 23.558594 60.214844 L 23.519531 60.234375 L 23.5 60.238281 " fill-opacity="1" fill-rule="nonzero"/><g fill="#ff914d" fill-opacity="1"><g transform="translate(75.222315, 44.967952)"><g><path d="M 5.015625 -3.453125 C 5.378906 -3.453125 5.636719 -3.488281 5.890625 -3.488281 C 6.472656 -3.527344 7.089844 -3.527344 7.671875 -3.5625 C 11.015625 -3.78125 13.816406 -5.125 16.03125 -7.632812 C 17.339844 -9.160156 18.25 -10.871094 18.648438 -12.832031 C 18.941406 -14.394531 18.976562 -15.960938 18.722656 -17.523438 C 18.539062 -18.832031 18.214844 -20.140625 17.523438 -21.304688 C 15.742188 -24.210938 13.160156 -25.738281 9.742188 -25.773438 C 7.34375 -25.8125 5.054688 -25.265625 2.800781 -24.464844 C 2.472656 -24.355469 2.179688 -24.175781 1.925781 -23.957031 C 1.527344 -23.628906 1.382812 -23.195312 1.5625 -22.683594 C 1.746094 -22.175781 2.070312 -21.847656 2.617188 -21.777344 C 2.871094 -21.738281 3.125 -21.738281 3.382812 -21.777344 C 3.890625 -21.847656 4.363281 -21.957031 4.871094 -21.996094 C 6.324219 -22.066406 7.816406 -22.175781 9.308594 -22.140625 C 10.761719 -22.101562 11.996094 -21.449219 12.871094 -20.214844 C 13.449219 -19.339844 13.851562 -18.394531 13.921875 -17.339844 C 13.960938 -16.832031 14.03125 -16.359375 14.03125 -15.851562 C 14.105469 -14.941406 14.105469 -13.996094 13.816406 -13.125 C 13.234375 -11.378906 12.214844 -9.925781 10.6875 -8.871094 C 9.453125 -8.035156 8.105469 -7.5625 6.617188 -7.34375 C 6.144531 -7.269531 5.671875 -7.269531 5.125 -7.234375 C 5.125 -7.523438 5.089844 -7.78125 5.089844 -7.996094 C 5.125 -11.632812 4.980469 -15.269531 4.761719 -18.902344 C 4.726562 -19.375 4.652344 -19.847656 4.472656 -20.285156 C 4.109375 -21.265625 3.054688 -21.59375 2.144531 -21.050781 C 1.636719 -20.757812 1.34375 -20.320312 1.234375 -19.777344 C 1.054688 -18.867188 0.871094 -17.960938 0.761719 -17.050781 C 0.582031 -15.125 0.4375 -13.195312 0.328125 -11.269531 C 0.253906 -10.214844 0.289062 -9.199219 0.253906 -8.144531 C 0.183594 -5.960938 0.144531 -3.78125 0.0351562 -1.5625 C 0 -0.691406 0.289062 0.0742188 0.800781 0.761719 C 1.527344 1.816406 3.015625 1.964844 3.890625 1.054688 C 4.433594 0.507812 4.835938 -0.144531 4.90625 -0.945312 C 4.945312 -1.453125 4.945312 -2 4.945312 -2.542969 C 4.980469 -2.835938 4.980469 -3.089844 5.015625 -3.453125 Z M 14.214844 -19.777344 C 15.523438 -18.796875 15.742188 -14.578125 14.6875 -13.015625 C 14.503906 -13.195312 14.613281 -13.414062 14.652344 -13.597656 C 14.867188 -15.269531 14.941406 -16.90625 14.578125 -18.539062 C 14.46875 -18.941406 14.359375 -19.339844 14.214844 -19.777344 Z M 0.726562 -2.472656 C 0.835938 -2.253906 0.871094 -2.070312 0.945312 -1.890625 C 1.054688 -1.527344 1.164062 -1.164062 1.308594 -0.800781 C 1.636719 -0.0742188 2.179688 0.363281 2.980469 0.4375 C 3.089844 0.472656 3.234375 0.507812 3.34375 0.507812 C 3.34375 0.507812 3.382812 0.546875 3.417969 0.617188 C 3.234375 0.871094 2.945312 0.835938 2.652344 0.835938 C 2.253906 0.835938 1.890625 0.65625 1.5625 0.398438 C 0.871094 -0.144531 0.472656 -1.527344 0.726562 -2.472656 Z M 1.308594 -17.050781 C 1.054688 -18.757812 1.78125 -20.539062 2.980469 -20.792969 C 2.691406 -20.359375 2.398438 -20.03125 2.21875 -19.667969 C 2 -19.230469 1.855469 -18.757812 1.746094 -18.324219 C 1.636719 -17.886719 1.5625 -17.449219 1.453125 -17.050781 C 1.417969 -17.050781 1.382812 -17.050781 1.308594 -17.050781 Z M 2.328125 -23.8125 C 2.363281 -22.613281 3.125 -22.503906 3.960938 -22.503906 C 3.636719 -22.03125 3.054688 -21.996094 2.507812 -22.359375 C 1.964844 -22.683594 1.890625 -23.15625 2.328125 -23.8125 Z M 2.328125 -23.8125 "/></g></g></g><g fill="#ff914d" fill-opacity="1"><g transform="translate(95.216721, 44.967952)"><g><path d="M 3.417969 -20.394531 C 3.746094 -20.429688 4.070312 -20.503906 4.398438 -20.503906 C 5.453125 -20.539062 6.507812 -20.539062 7.5625 -20.578125 C 8.941406 -20.578125 10.324219 -20.648438 11.667969 -20.285156 C 11.886719 -20.214844 12.140625 -20.214844 12.359375 -20.214844 C 13.816406 -20.175781 14.796875 -21.304688 14.542969 -22.683594 C 14.394531 -23.484375 13.707031 -24.140625 12.796875 -24.285156 C 12.324219 -24.394531 11.816406 -24.429688 11.34375 -24.429688 C 9.160156 -24.539062 7.015625 -24.285156 4.871094 -23.886719 C 3.816406 -23.703125 2.800781 -23.449219 1.816406 -23.011719 C 0.945312 -22.648438 0.4375 -21.996094 0.328125 -21.011719 C 0.289062 -20.867188 0.253906 -20.6875 0.253906 -20.503906 C 0.183594 -18.796875 0.109375 -17.121094 0.0742188 -15.414062 C 0.0351562 -12.105469 0 -8.796875 0 -5.488281 C 0 -4.871094 0.0351562 -4.253906 0.144531 -3.671875 C 0.4375 -1.746094 1.382812 -0.691406 3.273438 -0.289062 C 4.433594 -0.0351562 5.597656 0 6.796875 -0.144531 C 8.761719 -0.4375 10.6875 -0.800781 12.6875 -0.910156 C 13.125 -0.910156 13.632812 -1.054688 14.03125 -1.308594 C 15.160156 -1.925781 15.125 -3.453125 13.996094 -4.070312 C 13.632812 -4.253906 13.269531 -4.363281 12.871094 -4.398438 C 12.105469 -4.507812 11.34375 -4.542969 10.578125 -4.542969 C 8.726562 -4.582031 6.90625 -4.542969 5.089844 -4.542969 C 4.652344 -4.542969 4.542969 -4.691406 4.472656 -5.054688 C 4.398438 -5.453125 4.324219 -5.597656 4.796875 -5.851562 C 5.78125 -6.324219 6.796875 -6.617188 7.851562 -6.796875 C 8.761719 -6.945312 9.707031 -7.015625 10.617188 -7.054688 C 11.632812 -7.125 12.46875 -7.742188 12.722656 -8.617188 C 12.941406 -9.523438 12.578125 -10.398438 11.777344 -10.90625 C 11.234375 -11.234375 10.617188 -11.269531 10.035156 -11.195312 C 8.144531 -10.941406 6.289062 -10.722656 4.617188 -9.671875 C 4.472656 -9.597656 4.324219 -9.5625 4.109375 -9.488281 C 3.890625 -13.125 3.636719 -16.6875 3.417969 -20.394531 Z M 3.816406 -1.054688 C 1.890625 -0.871094 0.253906 -3.636719 0.835938 -5.199219 C 1.054688 -4.253906 1.234375 -3.382812 1.78125 -2.652344 C 2.289062 -1.890625 3.089844 -1.527344 3.816406 -1.054688 Z M 1.054688 -20.503906 C 0.65625 -21.523438 1.5625 -22.792969 2.691406 -22.757812 C 2.328125 -22.429688 1.925781 -22.140625 1.671875 -21.777344 C 1.382812 -21.414062 1.273438 -20.941406 1.054688 -20.503906 Z M 12.289062 -1.5625 C 12.976562 -2 13.851562 -2.144531 14.179688 -3.054688 C 14.324219 -2.652344 14.25 -2.363281 13.851562 -1.964844 C 13.34375 -1.453125 12.832031 -1.308594 12.289062 -1.5625 Z M 11.34375 -20.941406 C 12.140625 -21.121094 12.871094 -21.230469 13.597656 -21.375 C 13.449219 -21.011719 13.085938 -20.902344 12.722656 -20.792969 C 12.289062 -20.6875 11.851562 -20.613281 11.34375 -20.941406 Z M 9.851562 -7.742188 C 10.617188 -8.105469 11.269531 -8.398438 11.925781 -8.6875 C 11.777344 -7.925781 10.980469 -7.523438 9.851562 -7.742188 Z M 9.851562 -7.742188 "/></g></g></g><g fill="#ff914d" fill-opacity="1"><g transform="translate(111.175889, 44.967952)"><g><path d="M 0 -21.011719 C 0 -20.832031 0 -20.613281 0 -20.394531 C 0.0742188 -20.320312 0.21875 -20.25 0.289062 -20.175781 C 0.691406 -19.414062 1.34375 -19.269531 2.109375 -19.449219 C 2.472656 -19.523438 2.800781 -19.632812 3.164062 -19.703125 C 4.035156 -19.847656 4.90625 -20.066406 5.816406 -19.996094 C 5.816406 -19.558594 5.851562 -19.160156 5.816406 -18.757812 C 5.742188 -16.648438 5.636719 -14.503906 5.5625 -12.398438 C 5.453125 -9.671875 5.378906 -6.980469 5.234375 -4.289062 C 5.199219 -3.273438 5.488281 -2.328125 5.890625 -1.417969 C 6.179688 -0.691406 6.726562 -0.21875 7.523438 -0.144531 C 8.398438 -0.0742188 9.050781 -0.398438 9.488281 -1.128906 C 9.960938 -1.890625 10.324219 -2.726562 10.359375 -3.636719 C 10.433594 -6.109375 10.578125 -8.542969 10.507812 -11.015625 C 10.398438 -13.488281 10.324219 -15.996094 10.035156 -18.46875 C 9.960938 -19.085938 9.886719 -19.703125 9.816406 -20.320312 C 9.960938 -20.359375 10.070312 -20.394531 10.179688 -20.394531 C 10.90625 -20.429688 11.632812 -20.46875 12.359375 -20.46875 C 13.449219 -20.503906 14.578125 -20.503906 15.667969 -20.539062 C 16.359375 -20.578125 16.941406 -20.832031 17.414062 -21.339844 C 17.960938 -21.957031 18.03125 -22.792969 17.59375 -23.484375 C 17.230469 -24.101562 16.648438 -24.464844 15.960938 -24.503906 C 15.195312 -24.539062 14.46875 -24.574219 13.707031 -24.539062 C 12.179688 -24.464844 10.617188 -24.355469 9.089844 -24.210938 C 8.433594 -24.140625 7.78125 -23.957031 7.125 -23.847656 C 5.417969 -23.484375 3.671875 -23.195312 2.070312 -22.539062 C 1.308594 -22.25 0.582031 -21.921875 0.21875 -21.160156 C 0.183594 -21.085938 0.0742188 -21.050781 0 -21.011719 Z M 8.433594 -1.019531 C 7.816406 -0.871094 7.453125 -1.089844 7.089844 -1.34375 C 6.507812 -1.78125 5.960938 -3.308594 6.214844 -4.507812 C 6.324219 -4.324219 6.398438 -4.21875 6.433594 -4.109375 C 6.542969 -3.78125 6.652344 -3.453125 6.761719 -3.125 C 6.945312 -2.363281 7.34375 -1.746094 8.070312 -1.382812 C 8.179688 -1.308594 8.253906 -1.164062 8.433594 -1.019531 Z M 14.761719 -21.230469 C 15.304688 -21.523438 15.777344 -21.667969 16.140625 -21.996094 C 16.46875 -22.25 16.6875 -22.683594 16.976562 -23.046875 C 17.230469 -22.792969 17.230469 -22.46875 16.867188 -21.957031 C 16.359375 -21.230469 15.597656 -20.941406 14.761719 -21.230469 Z M 3.125 -20.25 C 2.542969 -19.703125 1.636719 -19.742188 1.128906 -20.214844 C 0.726562 -20.578125 0.691406 -21.050781 1.089844 -21.523438 C 1.164062 -21.375 1.234375 -21.265625 1.234375 -21.160156 C 1.308594 -20.613281 1.671875 -20.394531 2.144531 -20.320312 C 2.472656 -20.285156 2.800781 -20.285156 3.125 -20.25 Z M 3.125 -20.25 "/></g></g></g><g fill="#ff914d" fill-opacity="1"><g transform="translate(130.152395, 44.967952)"><g><path d="M 6.507812 -12.796875 C 6.582031 -12.796875 6.617188 -12.796875 6.652344 -12.796875 C 6.6875 -12.613281 6.761719 -12.433594 6.796875 -12.25 C 7.089844 -10.722656 7.417969 -9.199219 7.671875 -7.632812 C 7.960938 -6.144531 8.179688 -4.652344 8.46875 -3.199219 C 8.652344 -2.363281 8.871094 -1.527344 9.34375 -0.800781 C 9.671875 -0.328125 10.070312 0.0351562 10.617188 0.183594 C 11.597656 0.4375 12.542969 0.0351562 13.085938 -0.910156 C 13.414062 -1.527344 13.707031 -2.21875 13.921875 -2.910156 C 14.46875 -4.652344 14.976562 -6.363281 15.523438 -8.105469 C 16.285156 -10.542969 17.050781 -12.976562 17.8125 -15.414062 C 17.851562 -15.597656 17.886719 -15.8125 18.140625 -15.996094 C 18.175781 -15.742188 18.214844 -15.558594 18.214844 -15.378906 C 18.324219 -13.449219 18.394531 -11.523438 18.539062 -9.632812 C 18.722656 -7.453125 18.976562 -5.308594 19.195312 -3.164062 C 19.269531 -2.691406 19.414062 -2.21875 19.632812 -1.816406 C 20.175781 -0.945312 20.976562 -0.4375 21.996094 -0.507812 C 23.046875 -0.582031 23.777344 -1.199219 24.175781 -2.179688 C 24.394531 -2.691406 24.464844 -3.199219 24.394531 -3.746094 C 24.355469 -4.109375 24.320312 -4.472656 24.285156 -4.835938 C 24.066406 -7.269531 23.886719 -9.742188 23.628906 -12.179688 C 23.414062 -14.140625 23.046875 -16.070312 22.792969 -18.03125 C 22.613281 -19.339844 22.394531 -20.613281 21.957031 -21.886719 C 21.738281 -22.574219 21.414062 -23.230469 20.867188 -23.738281 C 20.25 -24.355469 19.523438 -24.503906 18.722656 -24.285156 C 18.175781 -24.140625 17.742188 -23.8125 17.339844 -23.339844 C 16.433594 -22.25 15.8125 -20.976562 15.339844 -19.632812 C 14.25 -16.394531 13.125 -13.195312 12.035156 -9.996094 C 11.960938 -9.78125 11.886719 -9.597656 11.777344 -9.414062 C 11.632812 -9.597656 11.597656 -9.78125 11.5625 -9.960938 C 11.304688 -11.378906 11.089844 -12.761719 10.871094 -14.179688 C 10.542969 -16.03125 10.070312 -17.8125 9.414062 -19.59375 C 9.269531 -19.996094 9.089844 -20.359375 8.835938 -20.722656 C 8.289062 -21.558594 7.488281 -21.886719 6.507812 -21.777344 C 5.597656 -21.628906 5.015625 -21.121094 4.582031 -20.394531 C 3.890625 -19.230469 3.382812 -17.996094 2.945312 -16.757812 C 1.746094 -13.378906 0.910156 -9.886719 0.21875 -6.398438 C 0.109375 -5.636719 -0.0351562 -4.90625 0.0742188 -4.144531 C 0.183594 -3.382812 0.582031 -2.835938 1.234375 -2.691406 C 1.925781 -2.507812 2.542969 -2.800781 2.980469 -3.488281 C 3.164062 -3.78125 3.34375 -4.109375 3.453125 -4.472656 C 4.398438 -7.015625 5.308594 -9.5625 6.253906 -12.105469 C 6.324219 -12.324219 6.433594 -12.542969 6.507812 -12.796875 Z M 7.453125 -20.902344 C 6.144531 -20.757812 5.5625 -19.847656 4.945312 -18.902344 C 4.726562 -18.578125 4.542969 -18.25 4.289062 -17.851562 C 4.21875 -18.03125 4.179688 -18.105469 4.179688 -18.140625 C 4.472656 -19.304688 5.054688 -20.320312 6.109375 -20.976562 C 6.324219 -21.085938 6.582031 -21.160156 6.835938 -21.195312 C 7.054688 -21.230469 7.269531 -21.230469 7.453125 -20.902344 Z M 19.996094 -4.652344 C 20.214844 -3.234375 20.722656 -2.035156 22.175781 -1.382812 C 21.921875 -1.089844 21.667969 -1.128906 21.484375 -1.199219 C 21.195312 -1.34375 20.867188 -1.492188 20.648438 -1.707031 C 19.957031 -2.472656 19.667969 -3.382812 19.777344 -4.433594 C 19.777344 -4.472656 19.8125 -4.542969 19.847656 -4.617188 C 19.847656 -4.617188 19.886719 -4.617188 19.996094 -4.652344 Z M 16.433594 -20.214844 C 16.46875 -20.320312 16.433594 -20.46875 16.46875 -20.578125 C 16.796875 -21.449219 17.160156 -22.285156 17.8125 -22.976562 C 18.066406 -23.230469 18.394531 -23.449219 18.722656 -23.667969 C 18.941406 -23.8125 18.976562 -23.777344 19.375 -23.628906 C 19.339844 -23.59375 19.304688 -23.484375 19.269531 -23.484375 C 18.433594 -23.121094 17.921875 -22.429688 17.488281 -21.667969 C 17.269531 -21.265625 17.050781 -20.867188 16.832031 -20.503906 C 16.757812 -20.359375 16.648438 -20.285156 16.578125 -20.140625 C 16.542969 -20.175781 16.503906 -20.175781 16.433594 -20.214844 Z M 9.488281 -3.855469 C 10.214844 -2.726562 10.46875 -1.234375 12.070312 -0.617188 C 11.777344 -0.546875 11.667969 -0.4375 11.597656 -0.472656 C 11.160156 -0.507812 10.722656 -0.617188 10.433594 -0.980469 C 9.78125 -1.816406 9.5625 -2.800781 9.488281 -3.855469 Z M 0.980469 -6.433594 C 1.019531 -5.890625 0.980469 -5.34375 1.128906 -4.796875 C 1.273438 -4.289062 1.5625 -3.816406 1.816406 -3.308594 C 1.527344 -3.199219 1.34375 -3.382812 1.128906 -3.597656 C 0.472656 -4.21875 0.363281 -5.597656 0.980469 -6.433594 Z M 0.980469 -6.433594 "/></g></g></g><g fill="#ff914d" fill-opacity="1"><g transform="translate(155.672525, 44.967952)"><g><path d="M 12.25 -4.109375 C 12.398438 -3.488281 12.542969 -2.910156 12.6875 -2.328125 C 12.761719 -1.964844 12.871094 -1.527344 13.015625 -1.164062 C 13.269531 -0.546875 13.777344 -0.253906 14.433594 -0.253906 C 15.125 -0.253906 15.597656 -0.546875 15.851562 -1.164062 C 15.996094 -1.5625 16.070312 -2 16.105469 -2.398438 C 16.25 -5.417969 16.070312 -8.507812 15.523438 -11.453125 C 14.941406 -14.652344 14.289062 -18.25 12.796875 -21.121094 C 12.214844 -22.285156 11.414062 -23.230469 10.25 -23.886719 C 9.523438 -24.320312 8.761719 -24.503906 7.925781 -24.285156 C 6.90625 -24.03125 6.144531 -23.414062 5.488281 -22.648438 C 0.980469 -17.59375 0.726562 -9.707031 0.0742188 -3.34375 C 0 -2.726562 0 -2.070312 0.0351562 -1.453125 C 0.109375 -0.726562 0.582031 -0.21875 1.234375 -0.183594 C 2 -0.109375 2.472656 -0.472656 2.691406 -1.234375 C 2.761719 -1.492188 2.835938 -1.746094 2.871094 -2 C 2.910156 -2.363281 3.089844 -2.542969 3.488281 -2.617188 C 5.089844 -2.945312 6.726562 -3.308594 8.324219 -3.636719 C 9.597656 -3.890625 10.871094 -4.109375 12.25 -4.109375 Z M 8.289062 -20.066406 C 8.6875 -19.886719 8.835938 -19.558594 8.941406 -19.230469 C 9.269531 -18.25 9.597656 -17.230469 9.851562 -16.214844 C 10.359375 -13.851562 10.832031 -11.488281 11.34375 -9.089844 C 11.34375 -9.015625 11.34375 -8.941406 11.34375 -8.761719 C 8.761719 -8.46875 6.253906 -7.816406 3.816406 -6.761719 C 3.816406 -6.980469 3.78125 -7.089844 3.78125 -7.160156 C 4.253906 -10.214844 4.796875 -13.234375 5.925781 -16.105469 C 6.398438 -17.339844 7.015625 -18.503906 7.816406 -19.558594 C 7.960938 -19.742188 8.144531 -19.886719 8.289062 -20.066406 Z M 5.5625 -21.230469 C 5.527344 -21.847656 6.144531 -22.613281 7.054688 -23.230469 C 7.742188 -23.667969 8.46875 -23.886719 9.269531 -23.558594 C 8.578125 -23.339844 7.816406 -23.230469 7.269531 -22.722656 C 6.6875 -22.25 6.144531 -21.738281 5.5625 -21.230469 Z M 13.085938 -3.816406 C 13.488281 -2.691406 13.667969 -1.453125 15.050781 -0.910156 C 14.722656 -0.691406 14.433594 -0.761719 14.25 -0.871094 C 13.996094 -1.054688 13.742188 -1.273438 13.558594 -1.527344 C 13.125 -2.21875 13.050781 -2.980469 13.085938 -3.816406 Z M 0.617188 -3.125 C 0.835938 -2.253906 0.726562 -1.234375 1.746094 -0.726562 C 1.234375 -0.507812 0.871094 -0.617188 0.65625 -1.128906 C 0.328125 -1.78125 0.253906 -2.4375 0.617188 -3.125 Z M 0.617188 -3.125 "/></g></g></g><g fill="#ff914d" fill-opacity="1"><g transform="translate(172.940421, 44.967952)"><g><path d="M 3.453125 -12.46875 C 3.488281 -12.46875 3.527344 -12.46875 3.597656 -12.507812 C 3.636719 -12.398438 3.671875 -12.289062 3.671875 -12.179688 C 4.582031 -9.5625 5.453125 -6.871094 6.363281 -4.253906 C 6.90625 -2.726562 7.5625 -1.308594 8.617188 -0.0742188 C 9.234375 0.691406 9.960938 1.34375 10.980469 1.5625 C 12.179688 1.816406 13.304688 1.671875 14.214844 0.691406 C 14.761719 0.109375 14.941406 -0.617188 15.015625 -1.382812 C 15.015625 -8.578125 16.394531 -15.667969 15.921875 -22.902344 C 15.851562 -23.59375 15.8125 -24.285156 15.488281 -24.902344 C 15.160156 -25.484375 14.6875 -25.847656 13.960938 -25.8125 C 13.304688 -25.738281 12.832031 -25.410156 12.652344 -24.757812 C 12.507812 -24.285156 12.324219 -23.847656 12.289062 -23.375 C 12.179688 -21.484375 12.035156 -19.59375 11.996094 -17.703125 C 11.886719 -14.179688 11.851562 -10.617188 11.777344 -7.089844 C 11.777344 -6.652344 11.777344 -6.214844 11.523438 -5.742188 C 11.378906 -6 11.269531 -6.179688 11.195312 -6.363281 C 10.359375 -8.324219 9.5625 -10.25 8.761719 -12.179688 C 7.925781 -14.105469 7.160156 -16.070312 6.324219 -17.960938 C 5.890625 -18.976562 5.417969 -19.957031 4.691406 -20.832031 C 3.636719 -22.101562 1.964844 -22.03125 1.089844 -20.578125 C 0.835938 -20.140625 0.617188 -19.59375 0.546875 -19.085938 C 0.398438 -17.667969 0.289062 -16.25 0.21875 -14.832031 C 0.183594 -12.6875 0.183594 -10.542969 0.144531 -8.398438 C 0.144531 -7.597656 0.0742188 -6.796875 0.0351562 -6 C 0.0351562 -5.054688 0 -4.109375 0.0351562 -3.164062 C 0.0351562 -2.691406 0.21875 -2.179688 0.546875 -1.816406 C 1.199219 -0.980469 2.398438 -1.128906 2.800781 -2.109375 C 2.945312 -2.4375 3.054688 -2.800781 3.054688 -3.164062 C 3.125 -5.054688 3.199219 -6.945312 3.273438 -8.835938 C 3.273438 -9.671875 3.308594 -10.507812 3.34375 -11.34375 C 3.34375 -11.742188 3.417969 -12.105469 3.453125 -12.46875 Z M 12.871094 0.617188 C 12.433594 0.910156 11.996094 0.835938 11.597656 0.726562 C 10.6875 0.472656 9.996094 -0.109375 9.453125 -0.871094 C 9.050781 -1.417969 8.761719 -2.035156 8.46875 -2.652344 C 8.398438 -2.726562 8.398438 -2.835938 8.398438 -2.945312 C 8.433594 -2.945312 8.46875 -2.980469 8.507812 -3.015625 C 8.652344 -2.835938 8.796875 -2.652344 8.941406 -2.507812 C 9.308594 -2.035156 9.632812 -1.527344 10.035156 -1.054688 C 10.542969 -0.472656 11.160156 -0.0351562 11.925781 0.21875 C 12.25 0.328125 12.542969 0.472656 12.871094 0.617188 Z M 3.125 -20.902344 C 3.089844 -20.832031 3.054688 -20.792969 3.015625 -20.757812 C 2.144531 -20.429688 1.816406 -19.703125 1.597656 -18.867188 C 1.527344 -18.613281 1.417969 -18.359375 1.34375 -18.03125 C 0.945312 -18.6875 1.164062 -19.777344 1.78125 -20.503906 C 2.179688 -20.976562 2.617188 -21.121094 3.125 -20.902344 Z M 12.796875 -22.320312 C 12.613281 -23.195312 12.761719 -24.03125 13.378906 -24.722656 C 13.632812 -25.011719 13.886719 -25.339844 14.359375 -25.15625 C 14.03125 -24.683594 13.667969 -24.25 13.414062 -23.777344 C 13.195312 -23.304688 13.125 -22.757812 13.015625 -22.25 C 12.941406 -22.285156 12.871094 -22.285156 12.796875 -22.320312 Z M 0.835938 -4.433594 C 1.019531 -3.488281 1.234375 -2.582031 2.179688 -2.035156 C 2.144531 -2 2.109375 -1.964844 2.109375 -1.890625 C 1.964844 -1.890625 1.816406 -1.816406 1.746094 -1.855469 C 1.453125 -2.070312 1.089844 -2.253906 0.910156 -2.542969 C 0.582031 -3.125 0.546875 -3.78125 0.835938 -4.433594 Z M 0.835938 -4.433594 "/></g></g></g><g fill="#ff914d" fill-opacity="1"><g transform="translate(190.062899, 44.967952)"><g><path d="M 2.691406 -3.015625 C 2.398438 -2.910156 2.179688 -2.835938 1.925781 -2.761719 C 1.5625 -2.652344 1.199219 -2.542969 0.835938 -2.398438 C 0.21875 -2.070312 -0.109375 -1.382812 0.0351562 -0.800781 C 0.183594 -0.109375 0.800781 0.328125 1.527344 0.289062 C 1.78125 0.289062 2.035156 0.253906 2.289062 0.21875 C 2.652344 0.144531 3.015625 0.109375 3.382812 0.0742188 C 4.507812 0 5.636719 0.0742188 6.761719 0.253906 C 7.269531 0.328125 7.816406 0.398438 8.324219 0.398438 C 9.125 0.398438 9.707031 -0.0742188 9.851562 -0.800781 C 10.035156 -1.527344 9.78125 -2.253906 9.089844 -2.582031 C 8.652344 -2.800781 8.179688 -2.871094 7.742188 -3.015625 C 7.523438 -3.089844 7.308594 -3.164062 7.125 -3.199219 C 7.160156 -4.035156 7.234375 -4.796875 7.199219 -5.527344 C 7.160156 -7.78125 7.089844 -10.035156 7.015625 -12.289062 C 6.980469 -13.378906 6.945312 -14.433594 6.871094 -15.523438 C 6.726562 -17.378906 6.542969 -19.230469 6.398438 -21.121094 C 6.398438 -21.304688 6.433594 -21.523438 6.433594 -21.777344 C 6.726562 -21.738281 6.945312 -21.703125 7.199219 -21.703125 C 7.960938 -21.628906 8.6875 -22.101562 8.835938 -22.832031 C 9.050781 -23.628906 8.6875 -24.394531 7.890625 -24.648438 C 7.453125 -24.792969 6.980469 -24.867188 6.507812 -24.902344 C 5.015625 -25.046875 3.5625 -24.683594 2.109375 -24.320312 C 1.707031 -24.210938 1.34375 -24.066406 0.980469 -23.847656 C 0.507812 -23.628906 0.253906 -23.230469 0.253906 -22.683594 C 0.253906 -22.140625 0.507812 -21.703125 0.980469 -21.558594 C 1.34375 -21.449219 1.746094 -21.484375 2.109375 -21.484375 C 2.398438 -21.484375 2.652344 -21.59375 3.015625 -21.667969 C 3.015625 -21.230469 3.015625 -20.902344 3.015625 -20.613281 C 2.910156 -19.085938 2.800781 -17.59375 2.691406 -16.105469 C 2.4375 -13.125 2.289062 -10.144531 2.328125 -7.160156 C 2.328125 -5.816406 2.328125 -4.433594 2.691406 -3.015625 Z M 9.234375 -1.746094 C 9.488281 -1.34375 9.453125 -1.019531 9.125 -0.582031 C 8.761719 -0.109375 8.324219 0.109375 7.5625 -0.109375 C 7.996094 -0.363281 8.363281 -0.507812 8.652344 -0.761719 C 8.90625 -1.019531 9.050781 -1.417969 9.234375 -1.746094 Z M 6.90625 -22.25 C 7.960938 -22.976562 7.960938 -22.976562 8.289062 -23.628906 C 8.542969 -23.339844 8.542969 -22.941406 8.289062 -22.574219 C 7.960938 -22.140625 7.488281 -22.03125 6.90625 -22.25 Z M 1.453125 -23.703125 C 1.199219 -23.011719 1.089844 -22.394531 1.925781 -22.03125 C 1.382812 -21.847656 1.054688 -21.996094 0.871094 -22.46875 C 0.691406 -22.976562 0.910156 -23.484375 1.453125 -23.703125 Z M 0.800781 -1.671875 C 0.835938 -0.945312 1.308594 -0.582031 1.925781 -0.289062 C 1.453125 -0.0742188 1.089844 -0.144531 0.835938 -0.472656 C 0.507812 -0.871094 0.472656 -1.273438 0.800781 -1.671875 Z M 0.800781 -1.671875 "/></g></g></g><g fill="#ff914d" fill-opacity="1"><g transform="translate(201.078002, 44.967952)"><g><path d="M 12.25 -4.109375 C 12.398438 -3.488281 12.542969 -2.910156 12.6875 -2.328125 C 12.761719 -1.964844 12.871094 -1.527344 13.015625 -1.164062 C 13.269531 -0.546875 13.777344 -0.253906 14.433594 -0.253906 C 15.125 -0.253906 15.597656 -0.546875 15.851562 -1.164062 C 15.996094 -1.5625 16.070312 -2 16.105469 -2.398438 C 16.25 -5.417969 16.070312 -8.507812 15.523438 -11.453125 C 14.941406 -14.652344 14.289062 -18.25 12.796875 -21.121094 C 12.214844 -22.285156 11.414062 -23.230469 10.25 -23.886719 C 9.523438 -24.320312 8.761719 -24.503906 7.925781 -24.285156 C 6.90625 -24.03125 6.144531 -23.414062 5.488281 -22.648438 C 0.980469 -17.59375 0.726562 -9.707031 0.0742188 -3.34375 C 0 -2.726562 0 -2.070312 0.0351562 -1.453125 C 0.109375 -0.726562 0.582031 -0.21875 1.234375 -0.183594 C 2 -0.109375 2.472656 -0.472656 2.691406 -1.234375 C 2.761719 -1.492188 2.835938 -1.746094 2.871094 -2 C 2.910156 -2.363281 3.089844 -2.542969 3.488281 -2.617188 C 5.089844 -2.945312 6.726562 -3.308594 8.324219 -3.636719 C 9.597656 -3.890625 10.871094 -4.109375 12.25 -4.109375 Z M 8.289062 -20.066406 C 8.6875 -19.886719 8.835938 -19.558594 8.941406 -19.230469 C 9.269531 -18.25 9.597656 -17.230469 9.851562 -16.214844 C 10.359375 -13.851562 10.832031 -11.488281 11.34375 -9.089844 C 11.34375 -9.015625 11.34375 -8.941406 11.34375 -8.761719 C 8.761719 -8.46875 6.253906 -7.816406 3.816406 -6.761719 C 3.816406 -6.980469 3.78125 -7.089844 3.78125 -7.160156 C 4.253906 -10.214844 4.796875 -13.234375 5.925781 -16.105469 C 6.398438 -17.339844 7.015625 -18.503906 7.816406 -19.558594 C 7.960938 -19.742188 8.144531 -19.886719 8.289062 -20.066406 Z M 5.5625 -21.230469 C 5.527344 -21.847656 6.144531 -22.613281 7.054688 -23.230469 C 7.742188 -23.667969 8.46875 -23.886719 9.269531 -23.558594 C 8.578125 -23.339844 7.816406 -23.230469 7.269531 -22.722656 C 6.6875 -22.25 6.144531 -21.738281 5.5625 -21.230469 Z M 13.085938 -3.816406 C 13.488281 -2.691406 13.667969 -1.453125 15.050781 -0.910156 C 14.722656 -0.691406 14.433594 -0.761719 14.25 -0.871094 C 13.996094 -1.054688 13.742188 -1.273438 13.558594 -1.527344 C 13.125 -2.21875 13.050781 -2.980469 13.085938 -3.816406 Z M 0.617188 -3.125 C 0.835938 -2.253906 0.726562 -1.234375 1.746094 -0.726562 C 1.234375 -0.507812 0.871094 -0.617188 0.65625 -1.128906 C 0.328125 -1.78125 0.253906 -2.4375 0.617188 -3.125 Z M 0.617188 -3.125 "/></g></g></g><g fill="#ff914d" fill-opacity="1"><g transform="translate(95.110301, 61.970016)"><g><path d="M 1.046875 -2.796875 C 1.652344 -2.742188 1.644531 -2.832031 2.25 -2.78125 C 2.359375 -2.769531 2.335938 -2.777344 2.417969 -2.832031 C 2.515625 -2.898438 2.632812 -3.03125 2.632812 -3.132812 C 2.632812 -3.230469 2.507812 -3.367188 2.40625 -3.40625 C 2.28125 -3.460938 2.277344 -3.441406 2.140625 -3.441406 C 1.542969 -3.441406 1.550781 -3.289062 0.960938 -3.289062 C 0.960938 -3.757812 0.953125 -4.195312 0.972656 -4.632812 C 0.972656 -4.703125 1.097656 -4.820312 1.179688 -4.832031 C 1.535156 -4.894531 1.898438 -4.9375 2.253906 -4.984375 C 2.445312 -5.003906 2.632812 -5.023438 2.816406 -5.074219 C 2.878906 -5.085938 2.925781 -5.167969 2.980469 -5.214844 C 2.925781 -5.277344 2.871094 -5.339844 2.8125 -5.386719 C 2.777344 -5.414062 2.722656 -5.414062 2.671875 -5.421875 C 2.195312 -5.421875 1.714844 -5.449219 1.234375 -5.414062 C 0.601562 -5.367188 0.371094 -5.140625 0.34375 -4.503906 C 0.300781 -3.40625 0.292969 -2.308594 0.273438 -1.214844 C 0.273438 -1.046875 0.308594 -0.882812 0.347656 -0.71875 C 0.472656 -0.226562 0.898438 0.0820312 1.398438 -0.015625 C 1.945312 -0.117188 2.488281 -0.265625 3.023438 -0.417969 C 3.316406 -0.5 3.433594 -0.683594 3.378906 -0.871094 C 3.324219 -1.054688 3.140625 -1.105469 2.832031 -1.027344 C 2.371094 -0.910156 1.914062 -0.800781 1.453125 -0.691406 C 1.136719 -0.617188 0.980469 -0.707031 0.972656 -1.027344 C 0.953125 -1.609375 0.964844 -2.195312 0.964844 -2.796875 C 0.988281 -2.796875 1.015625 -2.796875 1.046875 -2.796875 Z M 1.046875 -2.796875 "/></g></g></g><g fill="#ff914d" fill-opacity="1"><g transform="translate(98.784507, 61.970016)"><g><path d="M 3.359375 -1.414062 C 3.40625 -1.589844 3.398438 -1.808594 3.351562 -1.988281 C 3.195312 -2.5625 2.734375 -2.796875 2.207031 -2.933594 C 1.953125 -3.003906 1.691406 -3.042969 1.441406 -3.113281 C 1.132812 -3.203125 1.007812 -3.394531 1.042969 -3.707031 C 1.089844 -4.160156 1.335938 -4.496094 1.691406 -4.757812 C 1.777344 -4.8125 1.898438 -4.832031 2.007812 -4.847656 C 2.261719 -4.878906 2.476562 -4.769531 2.6875 -4.648438 C 2.769531 -4.601562 2.886719 -4.613281 2.980469 -4.605469 C 2.96875 -4.714844 2.980469 -4.847656 2.925781 -4.929688 C 2.597656 -5.441406 1.863281 -5.585938 1.324219 -5.230469 C 0.855469 -4.921875 0.527344 -4.488281 0.40625 -3.933594 C 0.246094 -3.214844 0.582031 -2.640625 1.296875 -2.433594 C 1.480469 -2.378906 1.679688 -2.351562 1.863281 -2.304688 C 2.0625 -2.25 2.261719 -2.195312 2.441406 -2.097656 C 2.640625 -1.996094 2.699219 -1.789062 2.613281 -1.597656 C 2.277344 -0.851562 1.433594 -0.609375 0.925781 -0.972656 C 0.851562 -1.027344 0.746094 -1.078125 0.65625 -1.082031 C 0.542969 -1.089844 0.378906 -1.089844 0.316406 -1.015625 C 0.261719 -0.945312 0.265625 -0.769531 0.316406 -0.671875 C 0.546875 -0.183594 0.980469 -0.0195312 1.441406 0.0078125 C 2.316406 0.0078125 3.152344 -0.601562 3.359375 -1.414062 Z M 3.359375 -1.414062 "/></g></g></g><g fill="#ff914d" fill-opacity="1"><g transform="translate(102.458712, 61.970016)"><g><path d="M 4.023438 -4.402344 C 3.707031 -5.167969 2.996094 -5.53125 2.0625 -5.410156 C 1.480469 -5.347656 1.097656 -5.074219 0.910156 -4.941406 C 0.816406 -4.875 0.78125 -4.847656 0.734375 -4.867188 L 0.691406 -4.878906 L 0.683594 -4.929688 C 0.664062 -5.167969 0.574219 -5.203125 0.480469 -5.203125 C 0.480469 -5.203125 0.472656 -5.203125 0.472656 -5.203125 C 0.378906 -5.203125 0.28125 -5.167969 0.273438 -4.929688 C 0.273438 -4.3125 0.300781 -3.695312 0.335938 -3.089844 C 0.355469 -2.632812 0.382812 -2.167969 0.390625 -1.707031 C 0.390625 -1.554688 0.390625 -1.40625 0.390625 -1.261719 C 0.382812 -0.925781 0.382812 -0.574219 0.425781 -0.234375 C 0.4375 -0.125 0.5 0.0078125 0.679688 0 C 0.734375 0 0.890625 -0.0078125 0.917969 -0.261719 C 0.925781 -0.320312 0.917969 -0.382812 0.917969 -0.453125 C 0.910156 -0.492188 0.910156 -0.527344 0.910156 -0.570312 C 0.910156 -0.855469 0.910156 -1.144531 0.910156 -1.433594 L 0.910156 -1.863281 L 1 -1.832031 C 1.832031 -1.527344 2.597656 -1.632812 3.359375 -2.167969 C 4.203125 -2.75 4.414062 -3.460938 4.023438 -4.402344 Z M 3.503906 -3.386719 C 3.488281 -3.222656 3.398438 -3.035156 3.289062 -2.925781 C 2.859375 -2.496094 2.378906 -2.277344 1.890625 -2.277344 C 1.605469 -2.277344 1.324219 -2.351562 1.035156 -2.503906 C 0.925781 -2.558594 1 -3.6875 1.007812 -3.703125 C 1.078125 -4.210938 1.171875 -4.375 1.5625 -4.613281 C 1.972656 -4.867188 2.503906 -4.878906 2.90625 -4.648438 C 3.34375 -4.394531 3.542969 -3.96875 3.503906 -3.386719 Z M 3.503906 -3.386719 "/></g></g></g><g fill="#ff914d" fill-opacity="1"><g transform="translate(106.955503, 61.970016)"><g><path d="M 1.046875 -2.796875 C 1.652344 -2.742188 1.644531 -2.832031 2.25 -2.78125 C 2.359375 -2.769531 2.335938 -2.777344 2.417969 -2.832031 C 2.515625 -2.898438 2.632812 -3.03125 2.632812 -3.132812 C 2.632812 -3.230469 2.507812 -3.367188 2.40625 -3.40625 C 2.28125 -3.460938 2.277344 -3.441406 2.140625 -3.441406 C 1.542969 -3.441406 1.550781 -3.289062 0.960938 -3.289062 C 0.960938 -3.757812 0.953125 -4.195312 0.972656 -4.632812 C 0.972656 -4.703125 1.097656 -4.820312 1.179688 -4.832031 C 1.535156 -4.894531 1.898438 -4.9375 2.253906 -4.984375 C 2.445312 -5.003906 2.632812 -5.023438 2.816406 -5.074219 C 2.878906 -5.085938 2.925781 -5.167969 2.980469 -5.214844 C 2.925781 -5.277344 2.871094 -5.339844 2.8125 -5.386719 C 2.777344 -5.414062 2.722656 -5.414062 2.671875 -5.421875 C 2.195312 -5.421875 1.714844 -5.449219 1.234375 -5.414062 C 0.601562 -5.367188 0.371094 -5.140625 0.34375 -4.503906 C 0.300781 -3.40625 0.292969 -2.308594 0.273438 -1.214844 C 0.273438 -1.046875 0.308594 -0.882812 0.347656 -0.71875 C 0.472656 -0.226562 0.898438 0.0820312 1.398438 -0.015625 C 1.945312 -0.117188 2.488281 -0.265625 3.023438 -0.417969 C 3.316406 -0.5 3.433594 -0.683594 3.378906 -0.871094 C 3.324219 -1.054688 3.140625 -1.105469 2.832031 -1.027344 C 2.371094 -0.910156 1.914062 -0.800781 1.453125 -0.691406 C 1.136719 -0.617188 0.980469 -0.707031 0.972656 -1.027344 C 0.953125 -1.609375 0.964844 -2.195312 0.964844 -2.796875 C 0.988281 -2.796875 1.015625 -2.796875 1.046875 -2.796875 Z M 1.046875 -2.796875 "/></g></g></g><g fill="#ff914d" fill-opacity="1"><g transform="translate(110.629709, 61.970016)"><g><path d="M 3.257812 -0.0546875 C 3.476562 -0.0976562 3.695312 -0.152344 3.902344 -0.226562 C 4.023438 -0.273438 4.160156 -0.347656 4.238281 -0.453125 C 4.292969 -0.535156 4.3125 -0.691406 4.277344 -0.789062 C 4.242188 -0.863281 4.105469 -0.917969 4.003906 -0.945312 C 3.921875 -0.964844 3.832031 -0.925781 3.75 -0.910156 C 3.476562 -0.855469 3.207031 -0.789062 2.941406 -0.761719 C 2.316406 -0.707031 1.460938 -1.191406 1.199219 -1.742188 C 0.800781 -2.585938 0.910156 -3.394531 1.488281 -4.113281 C 1.945312 -4.6875 2.515625 -4.996094 3.269531 -4.695312 C 3.289062 -4.6875 3.316406 -4.675781 3.332031 -4.675781 C 3.421875 -4.703125 3.550781 -4.710938 3.59375 -4.769531 C 3.625 -4.832031 3.597656 -4.964844 3.558594 -5.046875 C 3.523438 -5.113281 3.441406 -5.167969 3.367188 -5.210938 C 2.839844 -5.484375 2.304688 -5.523438 1.78125 -5.195312 C 1.597656 -5.078125 1.417969 -4.957031 1.253906 -4.820312 C 0.015625 -3.777344 -0.199219 -1.445312 1.523438 -0.390625 C 1.898438 -0.15625 2.28125 0.0195312 2.742188 0.0078125 C 2.914062 -0.015625 3.085938 -0.0195312 3.257812 -0.0546875 Z M 3.257812 -0.0546875 "/></g></g></g><g fill="#ff914d" fill-opacity="1"><g transform="translate(115.208757, 61.970016)"><g><path d="M 1.070312 -4.894531 C 1.0625 -5.257812 0.945312 -5.421875 0.742188 -5.429688 C 0.519531 -5.4375 0.390625 -5.273438 0.382812 -4.894531 C 0.34375 -3.488281 0.308594 -2.078125 0.273438 -0.664062 C 0.273438 -0.527344 0.28125 -0.355469 0.355469 -0.238281 C 0.425781 -0.128906 0.589844 0.015625 0.699219 0 C 0.828125 -0.0078125 0.992188 -0.136719 1.054688 -0.261719 C 1.132812 -0.398438 1.125 -0.582031 1.132812 -0.742188 C 1.136719 -1.414062 1.078125 -4.175781 1.070312 -4.894531 Z M 1.070312 -4.894531 "/></g></g></g><g fill="#ff914d" fill-opacity="1"><g transform="translate(117.148684, 61.970016)"><g><path d="M 4.324219 -0.714844 C 4.386719 -0.507812 4.515625 -0.355469 4.75 -0.398438 C 4.992188 -0.4375 5.066406 -0.628906 5.046875 -0.835938 C 5.023438 -1.078125 4.984375 -1.324219 4.90625 -1.550781 C 4.65625 -2.289062 4.394531 -3.035156 4.105469 -3.761719 C 3.941406 -4.179688 3.742188 -4.601562 3.496094 -4.984375 C 3.125 -5.558594 2.605469 -5.578125 2.171875 -5.039062 C 1.972656 -4.785156 1.84375 -4.46875 1.726562 -4.167969 C 1.496094 -3.578125 1.261719 -2.988281 1.082031 -2.386719 C 0.960938 -1.953125 0.464844 -1.679688 0.554688 -1.160156 C 0.5625 -1.132812 0.527344 -1.097656 0.519531 -1.070312 C 0.433594 -0.835938 0.320312 -0.609375 0.28125 -0.378906 C 0.261719 -0.265625 0.335938 -0.0820312 0.433594 -0.0273438 C 0.574219 0.0703125 0.65625 -0.0898438 0.726562 -0.210938 C 0.898438 -0.542969 1.0625 -0.878906 1.246094 -1.199219 C 1.289062 -1.273438 1.398438 -1.363281 1.480469 -1.371094 C 2.351562 -1.441406 3.214844 -1.488281 4.105469 -1.550781 C 4.179688 -1.242188 4.242188 -0.972656 4.324219 -0.714844 Z M 2.796875 -4.6875 C 3.339844 -3.902344 3.539062 -3.042969 3.851562 -2.25 C 3.113281 -2.179688 2.398438 -2.117188 1.636719 -2.050781 C 2.113281 -2.878906 2.261719 -3.839844 2.796875 -4.6875 Z M 2.796875 -4.6875 "/></g></g></g><g fill="#ff914d" fill-opacity="1"><g transform="translate(122.481767, 61.970016)"><g><path d="M 0.878906 -3.023438 C 0.878906 -3.652344 0.878906 -4.277344 0.878906 -4.90625 C 0.871094 -5.039062 0.855469 -5.167969 0.816406 -5.292969 C 0.796875 -5.355469 0.707031 -5.421875 0.636719 -5.429688 C 0.582031 -5.4375 0.5 -5.375 0.460938 -5.3125 C 0.425781 -5.257812 0.410156 -5.167969 0.410156 -5.09375 C 0.363281 -3.914062 0.316406 -2.734375 0.28125 -1.554688 C 0.273438 -1.335938 0.28125 -1.109375 0.300781 -0.890625 C 0.378906 -0.238281 0.519531 0.015625 1.070312 0 C 1.597656 -0.015625 2.125 -0.0976562 2.652344 -0.179688 C 2.914062 -0.21875 3.050781 -0.433594 3.015625 -0.636719 C 2.976562 -0.835938 2.804688 -0.953125 2.523438 -0.925781 C 2.152344 -0.878906 1.777344 -0.816406 1.40625 -0.753906 C 1 -0.679688 0.933594 -0.714844 0.925781 -1.117188 C 0.910156 -1.753906 0.917969 -2.390625 0.917969 -3.023438 C 0.90625 -3.023438 0.890625 -3.023438 0.878906 -3.023438 Z M 0.878906 -3.023438 "/></g></g></g><g fill="#ff914d" fill-opacity="1"><g transform="translate(125.785812, 61.970016)"><g><path d="M 1.070312 -4.894531 C 1.0625 -5.257812 0.945312 -5.421875 0.742188 -5.429688 C 0.519531 -5.4375 0.390625 -5.273438 0.382812 -4.894531 C 0.34375 -3.488281 0.308594 -2.078125 0.273438 -0.664062 C 0.273438 -0.527344 0.28125 -0.355469 0.355469 -0.238281 C 0.425781 -0.128906 0.589844 0.015625 0.699219 0 C 0.828125 -0.0078125 0.992188 -0.136719 1.054688 -0.261719 C 1.132812 -0.398438 1.125 -0.582031 1.132812 -0.742188 C 1.136719 -1.414062 1.078125 -4.175781 1.070312 -4.894531 Z M 1.070312 -4.894531 "/></g></g></g><g fill="#ff914d" fill-opacity="1"><g transform="translate(127.725739, 61.970016)"><g><path d="M 1.605469 -1.496094 C 2.269531 -2.304688 2.941406 -3.113281 3.605469 -3.921875 C 3.742188 -4.085938 3.875 -4.265625 3.976562 -4.449219 C 4.257812 -4.992188 3.984375 -5.464844 3.378906 -5.429688 C 2.667969 -5.394531 1.953125 -5.3125 1.242188 -5.238281 C 1.027344 -5.210938 0.816406 -5.148438 0.609375 -5.078125 C 0.445312 -5.019531 0.34375 -4.886719 0.40625 -4.695312 C 0.464844 -4.515625 0.625 -4.511719 0.789062 -4.53125 C 1.570312 -4.621094 2.351562 -4.703125 3.132812 -4.785156 C 3.207031 -4.792969 3.277344 -4.792969 3.40625 -4.792969 C 3.285156 -4.632812 3.195312 -4.511719 3.097656 -4.394531 C 2.417969 -3.570312 1.71875 -2.753906 1.054688 -1.914062 C 0.78125 -1.570312 0.546875 -1.179688 0.347656 -0.773438 C 0.15625 -0.378906 0.347656 -0.0625 0.78125 -0.0429688 C 1.550781 0 2.324219 0 3.089844 0 C 3.269531 0 3.453125 -0.0703125 3.621094 -0.136719 C 3.777344 -0.207031 3.875 -0.347656 3.832031 -0.535156 C 3.789062 -0.726562 3.648438 -0.789062 3.476562 -0.796875 C 3.371094 -0.800781 3.269531 -0.78125 3.175781 -0.78125 C 2.503906 -0.773438 1.832031 -0.78125 1.082031 -0.78125 C 1.28125 -1.046875 1.433594 -1.28125 1.605469 -1.496094 Z M 1.605469 -1.496094 "/></g></g></g><g fill="#ff914d" fill-opacity="1"><g transform="translate(132.105995, 61.970016)"><g><path d="M 4.324219 -0.714844 C 4.386719 -0.507812 4.515625 -0.355469 4.75 -0.398438 C 4.992188 -0.4375 5.066406 -0.628906 5.046875 -0.835938 C 5.023438 -1.078125 4.984375 -1.324219 4.90625 -1.550781 C 4.65625 -2.289062 4.394531 -3.035156 4.105469 -3.761719 C 3.941406 -4.179688 3.742188 -4.601562 3.496094 -4.984375 C 3.125 -5.558594 2.605469 -5.578125 2.171875 -5.039062 C 1.972656 -4.785156 1.84375 -4.46875 1.726562 -4.167969 C 1.496094 -3.578125 1.261719 -2.988281 1.082031 -2.386719 C 0.960938 -1.953125 0.464844 -1.679688 0.554688 -1.160156 C 0.5625 -1.132812 0.527344 -1.097656 0.519531 -1.070312 C 0.433594 -0.835938 0.320312 -0.609375 0.28125 -0.378906 C 0.261719 -0.265625 0.335938 -0.0820312 0.433594 -0.0273438 C 0.574219 0.0703125 0.65625 -0.0898438 0.726562 -0.210938 C 0.898438 -0.542969 1.0625 -0.878906 1.246094 -1.199219 C 1.289062 -1.273438 1.398438 -1.363281 1.480469 -1.371094 C 2.351562 -1.441406 3.214844 -1.488281 4.105469 -1.550781 C 4.179688 -1.242188 4.242188 -0.972656 4.324219 -0.714844 Z M 2.796875 -4.6875 C 3.339844 -3.902344 3.539062 -3.042969 3.851562 -2.25 C 3.113281 -2.179688 2.398438 -2.117188 1.636719 -2.050781 C 2.113281 -2.878906 2.261719 -3.839844 2.796875 -4.6875 Z M 2.796875 -4.6875 "/></g></g></g><g fill="#ff914d" fill-opacity="1"><g transform="translate(137.439079, 61.970016)"><g><path d="M 0.753906 -4.414062 C 0.761719 -3.230469 0.769531 -2.042969 0.769531 -0.855469 C 0.769531 -0.746094 0.753906 -0.644531 0.726562 -0.542969 C 0.652344 -0.273438 0.761719 -0.0546875 1.035156 -0.015625 C 1.242188 0.015625 1.46875 0.0195312 1.660156 -0.0351562 C 2.570312 -0.28125 3.394531 -0.714844 4.066406 -1.371094 C 4.941406 -2.234375 4.886719 -3.59375 3.988281 -4.433594 C 3.058594 -5.3125 1.960938 -5.605469 0.707031 -5.320312 C 0.515625 -5.277344 0.265625 -5.25 0.273438 -4.984375 C 0.289062 -4.6875 0.542969 -4.730469 0.753906 -4.703125 C 0.753906 -4.59375 0.753906 -4.503906 0.753906 -4.414062 Z M 1.328125 -4.347656 C 1.324219 -4.476562 1.328125 -4.613281 1.328125 -4.769531 C 1.804688 -4.804688 2.214844 -4.675781 2.625 -4.523438 C 3.050781 -4.359375 3.386719 -4.066406 3.660156 -3.707031 C 4.015625 -3.25 3.996094 -2.496094 3.566406 -2.027344 C 3.003906 -1.417969 2.253906 -1.125 1.5 -0.808594 C 1.21875 -2 1.371094 -3.179688 1.328125 -4.347656 Z M 1.328125 -4.347656 "/></g></g></g><g fill="#ff914d" fill-opacity="1"><g transform="translate(142.415712, 61.970016)"><g><path d="M 4.324219 -0.714844 C 4.386719 -0.507812 4.515625 -0.355469 4.75 -0.398438 C 4.992188 -0.4375 5.066406 -0.628906 5.046875 -0.835938 C 5.023438 -1.078125 4.984375 -1.324219 4.90625 -1.550781 C 4.65625 -2.289062 4.394531 -3.035156 4.105469 -3.761719 C 3.941406 -4.179688 3.742188 -4.601562 3.496094 -4.984375 C 3.125 -5.558594 2.605469 -5.578125 2.171875 -5.039062 C 1.972656 -4.785156 1.84375 -4.46875 1.726562 -4.167969 C 1.496094 -3.578125 1.261719 -2.988281 1.082031 -2.386719 C 0.960938 -1.953125 0.464844 -1.679688 0.554688 -1.160156 C 0.5625 -1.132812 0.527344 -1.097656 0.519531 -1.070312 C 0.433594 -0.835938 0.320312 -0.609375 0.28125 -0.378906 C 0.261719 -0.265625 0.335938 -0.0820312 0.433594 -0.0273438 C 0.574219 0.0703125 0.65625 -0.0898438 0.726562 -0.210938 C 0.898438 -0.542969 1.0625 -0.878906 1.246094 -1.199219 C 1.289062 -1.273438 1.398438 -1.363281 1.480469 -1.371094 C 2.351562 -1.441406 3.214844 -1.488281 4.105469 -1.550781 C 4.179688 -1.242188 4.242188 -0.972656 4.324219 -0.714844 Z M 2.796875 -4.6875 C 3.339844 -3.902344 3.539062 -3.042969 3.851562 -2.25 C 3.113281 -2.179688 2.398438 -2.117188 1.636719 -2.050781 C 2.113281 -2.878906 2.261719 -3.839844 2.796875 -4.6875 Z M 2.796875 -4.6875 "/></g></g></g><g fill="#ff914d" fill-opacity="1"><g transform="translate(147.748796, 61.970016)"><g/></g></g><g fill="#ff914d" fill-opacity="1"><g transform="translate(150.429048, 61.970016)"><g><path d="M 1.046875 -2.796875 C 1.652344 -2.742188 1.644531 -2.832031 2.25 -2.78125 C 2.359375 -2.769531 2.335938 -2.777344 2.417969 -2.832031 C 2.515625 -2.898438 2.632812 -3.03125 2.632812 -3.132812 C 2.632812 -3.230469 2.507812 -3.367188 2.40625 -3.40625 C 2.28125 -3.460938 2.277344 -3.441406 2.140625 -3.441406 C 1.542969 -3.441406 1.550781 -3.289062 0.960938 -3.289062 C 0.960938 -3.757812 0.953125 -4.195312 0.972656 -4.632812 C 0.972656 -4.703125 1.097656 -4.820312 1.179688 -4.832031 C 1.535156 -4.894531 1.898438 -4.9375 2.253906 -4.984375 C 2.445312 -5.003906 2.632812 -5.023438 2.816406 -5.074219 C 2.878906 -5.085938 2.925781 -5.167969 2.980469 -5.214844 C 2.925781 -5.277344 2.871094 -5.339844 2.8125 -5.386719 C 2.777344 -5.414062 2.722656 -5.414062 2.671875 -5.421875 C 2.195312 -5.421875 1.714844 -5.449219 1.234375 -5.414062 C 0.601562 -5.367188 0.371094 -5.140625 0.34375 -4.503906 C 0.300781 -3.40625 0.292969 -2.308594 0.273438 -1.214844 C 0.273438 -1.046875 0.308594 -0.882812 0.347656 -0.71875 C 0.472656 -0.226562 0.898438 0.0820312 1.398438 -0.015625 C 1.945312 -0.117188 2.488281 -0.265625 3.023438 -0.417969 C 3.316406 -0.5 3.433594 -0.683594 3.378906 -0.871094 C 3.324219 -1.054688 3.140625 -1.105469 2.832031 -1.027344 C 2.371094 -0.910156 1.914062 -0.800781 1.453125 -0.691406 C 1.136719 -0.617188 0.980469 -0.707031 0.972656 -1.027344 C 0.953125 -1.609375 0.964844 -2.195312 0.964844 -2.796875 C 0.988281 -2.796875 1.015625 -2.796875 1.046875 -2.796875 Z M 1.046875 -2.796875 "/></g></g></g><g fill="#ff914d" fill-opacity="1"><g transform="translate(154.103251, 61.970016)"><g><path d="M 1.242188 -4.386719 C 1.472656 -4.121094 1.71875 -3.867188 1.925781 -3.578125 C 2.179688 -3.234375 2.386719 -2.867188 2.617188 -2.507812 C 2.726562 -2.34375 2.84375 -2.171875 2.980469 -2.035156 C 3.207031 -1.804688 3.453125 -1.832031 3.625 -2.113281 C 3.761719 -2.335938 3.875 -2.589844 3.988281 -2.839844 C 4.210938 -3.277344 4.421875 -3.730469 4.640625 -4.167969 C 4.710938 -4.296875 4.804688 -4.40625 4.886719 -4.523438 C 4.90625 -4.523438 4.929688 -4.515625 4.941406 -4.511719 C 4.984375 -4.09375 5.023438 -3.679688 5.050781 -3.269531 C 5.101562 -2.570312 5.132812 -1.863281 5.1875 -1.164062 C 5.210938 -0.910156 5.257812 -0.65625 5.3125 -0.40625 C 5.347656 -0.226562 5.464844 -0.125 5.65625 -0.152344 C 5.839844 -0.171875 5.886719 -0.316406 5.910156 -0.472656 C 5.914062 -0.527344 5.910156 -0.589844 5.902344 -0.644531 C 5.792969 -1.746094 5.691406 -2.851562 5.566406 -3.960938 C 5.519531 -4.375 5.449219 -4.777344 5.359375 -5.1875 C 5.339844 -5.285156 5.222656 -5.410156 5.128906 -5.429688 C 5.039062 -5.449219 4.878906 -5.382812 4.820312 -5.300781 C 4.539062 -4.914062 4.25 -4.523438 4.011719 -4.113281 C 3.777344 -3.707031 3.59375 -3.269531 3.378906 -2.84375 C 3.34375 -2.769531 3.304688 -2.699219 3.25 -2.605469 C 3.167969 -2.726562 3.113281 -2.816406 3.050781 -2.90625 C 2.769531 -3.316406 2.503906 -3.742188 2.195312 -4.132812 C 1.90625 -4.496094 1.554688 -4.804688 1.105469 -4.949219 C 0.910156 -5.019531 0.761719 -4.914062 0.734375 -4.714844 C 0.601562 -3.785156 0.453125 -2.84375 0.347656 -1.90625 C 0.289062 -1.355469 0.289062 -0.796875 0.273438 -0.238281 C 0.273438 -0.15625 0.371094 -0.0078125 0.433594 0 C 0.527344 0.0078125 0.683594 -0.0546875 0.726562 -0.128906 C 0.808594 -0.289062 0.851562 -0.480469 0.863281 -0.65625 C 0.953125 -1.78125 1.035156 -2.90625 1.117188 -4.03125 C 1.125 -4.140625 1.160156 -4.25 1.179688 -4.359375 C 1.199219 -4.367188 1.21875 -4.378906 1.242188 -4.386719 Z M 1.242188 -4.386719 "/></g></g></g><g fill="#ff914d" fill-opacity="1"><g transform="translate(160.293192, 61.970016)"><g/></g></g><g fill="#ff914d" fill-opacity="1"><g transform="translate(162.973444, 61.970016)"><g><path d="M 0.753906 -4.414062 C 0.761719 -3.230469 0.769531 -2.042969 0.769531 -0.855469 C 0.769531 -0.746094 0.753906 -0.644531 0.726562 -0.542969 C 0.652344 -0.273438 0.761719 -0.0546875 1.035156 -0.015625 C 1.242188 0.015625 1.46875 0.0195312 1.660156 -0.0351562 C 2.570312 -0.28125 3.394531 -0.714844 4.066406 -1.371094 C 4.941406 -2.234375 4.886719 -3.59375 3.988281 -4.433594 C 3.058594 -5.3125 1.960938 -5.605469 0.707031 -5.320312 C 0.515625 -5.277344 0.265625 -5.25 0.273438 -4.984375 C 0.289062 -4.6875 0.542969 -4.730469 0.753906 -4.703125 C 0.753906 -4.59375 0.753906 -4.503906 0.753906 -4.414062 Z M 1.328125 -4.347656 C 1.324219 -4.476562 1.328125 -4.613281 1.328125 -4.769531 C 1.804688 -4.804688 2.214844 -4.675781 2.625 -4.523438 C 3.050781 -4.359375 3.386719 -4.066406 3.660156 -3.707031 C 4.015625 -3.25 3.996094 -2.496094 3.566406 -2.027344 C 3.003906 -1.417969 2.253906 -1.125 1.5 -0.808594 C 1.21875 -2 1.371094 -3.179688 1.328125 -4.347656 Z M 1.328125 -4.347656 "/></g></g></g><g fill="#ff914d" fill-opacity="1"><g transform="translate(167.950071, 61.970016)"><g><path d="M 1.070312 -4.894531 C 1.0625 -5.257812 0.945312 -5.421875 0.742188 -5.429688 C 0.519531 -5.4375 0.390625 -5.273438 0.382812 -4.894531 C 0.34375 -3.488281 0.308594 -2.078125 0.273438 -0.664062 C 0.273438 -0.527344 0.28125 -0.355469 0.355469 -0.238281 C 0.425781 -0.128906 0.589844 0.015625 0.699219 0 C 0.828125 -0.0078125 0.992188 -0.136719 1.054688 -0.261719 C 1.132812 -0.398438 1.125 -0.582031 1.132812 -0.742188 C 1.136719 -1.414062 1.078125 -4.175781 1.070312 -4.894531 Z M 1.070312 -4.894531 "/></g></g></g><g fill="#ff914d" fill-opacity="1"><g transform="translate(169.890001, 61.970016)"><g><path d="M 2.445312 -1.5 C 1.972656 -2.605469 1.5 -3.707031 1.019531 -4.8125 C 0.9375 -5.003906 0.84375 -5.195312 0.707031 -5.347656 C 0.636719 -5.421875 0.4375 -5.457031 0.355469 -5.410156 C 0.289062 -5.375 0.265625 -5.1875 0.28125 -5.074219 C 0.289062 -4.949219 0.355469 -4.832031 0.40625 -4.714844 C 0.890625 -3.480469 1.363281 -2.25 1.859375 -1.015625 C 1.96875 -0.746094 2.132812 -0.492188 2.28125 -0.246094 C 2.503906 0.0976562 2.871094 0.0820312 3.070312 -0.265625 C 3.167969 -0.453125 3.257812 -0.644531 3.332031 -0.84375 C 3.859375 -2.222656 4.449219 -3.578125 5.273438 -4.8125 C 5.421875 -5.039062 5.394531 -5.230469 5.238281 -5.332031 C 5.078125 -5.4375 4.90625 -5.367188 4.75 -5.15625 C 4.738281 -5.128906 4.714844 -5.101562 4.695312 -5.074219 C 4.015625 -4.003906 3.414062 -2.898438 2.941406 -1.726562 C 2.859375 -1.523438 2.753906 -1.324219 2.644531 -1.070312 C 2.5625 -1.246094 2.503906 -1.378906 2.445312 -1.5 Z M 2.445312 -1.5 "/></g></g></g><g fill="#ff914d" fill-opacity="1"><g transform="translate(175.545265, 61.970016)"><g><path d="M 1.046875 -2.796875 C 1.652344 -2.742188 1.644531 -2.832031 2.25 -2.78125 C 2.359375 -2.769531 2.335938 -2.777344 2.417969 -2.832031 C 2.515625 -2.898438 2.632812 -3.03125 2.632812 -3.132812 C 2.632812 -3.230469 2.507812 -3.367188 2.40625 -3.40625 C 2.28125 -3.460938 2.277344 -3.441406 2.140625 -3.441406 C 1.542969 -3.441406 1.550781 -3.289062 0.960938 -3.289062 C 0.960938 -3.757812 0.953125 -4.195312 0.972656 -4.632812 C 0.972656 -4.703125 1.097656 -4.820312 1.179688 -4.832031 C 1.535156 -4.894531 1.898438 -4.9375 2.253906 -4.984375 C 2.445312 -5.003906 2.632812 -5.023438 2.816406 -5.074219 C 2.878906 -5.085938 2.925781 -5.167969 2.980469 -5.214844 C 2.925781 -5.277344 2.871094 -5.339844 2.8125 -5.386719 C 2.777344 -5.414062 2.722656 -5.414062 2.671875 -5.421875 C 2.195312 -5.421875 1.714844 -5.449219 1.234375 -5.414062 C 0.601562 -5.367188 0.371094 -5.140625 0.34375 -4.503906 C 0.300781 -3.40625 0.292969 -2.308594 0.273438 -1.214844 C 0.273438 -1.046875 0.308594 -0.882812 0.347656 -0.71875 C 0.472656 -0.226562 0.898438 0.0820312 1.398438 -0.015625 C 1.945312 -0.117188 2.488281 -0.265625 3.023438 -0.417969 C 3.316406 -0.5 3.433594 -0.683594 3.378906 -0.871094 C 3.324219 -1.054688 3.140625 -1.105469 2.832031 -1.027344 C 2.371094 -0.910156 1.914062 -0.800781 1.453125 -0.691406 C 1.136719 -0.617188 0.980469 -0.707031 0.972656 -1.027344 C 0.953125 -1.609375 0.964844 -2.195312 0.964844 -2.796875 C 0.988281 -2.796875 1.015625 -2.796875 1.046875 -2.796875 Z M 1.046875 -2.796875 "/></g></g></g><g fill="#ff914d" fill-opacity="1"><g transform="translate(179.219468, 61.970016)"><g><path d="M 4.160156 -0.828125 C 3.894531 -1.027344 3.503906 -1.191406 3.117188 -1.351562 C 2.867188 -1.460938 2.625 -1.554688 2.425781 -1.664062 L 2.308594 -1.726562 L 2.425781 -1.789062 C 2.558594 -1.859375 2.699219 -1.914062 2.851562 -1.980469 C 3.316406 -2.179688 3.804688 -2.386719 4.039062 -2.78125 C 4.304688 -3.234375 4.269531 -3.878906 4.113281 -4.324219 C 3.804688 -5.183594 2.96875 -5.429688 2.113281 -5.429688 C 1.824219 -5.429688 1.527344 -5.402344 1.253906 -5.359375 C 1.191406 -5.355469 1.117188 -5.347656 1.042969 -5.339844 C 0.863281 -5.332031 0.664062 -5.328125 0.570312 -5.238281 C 0.445312 -5.128906 0.4375 -4.875 0.425781 -4.675781 C 0.425781 -4.605469 0.425781 -4.550781 0.417969 -4.496094 C 0.347656 -3.902344 0.308594 -3.113281 0.292969 -2.152344 C 0.289062 -1.777344 0.28125 -1.019531 0.28125 -0.714844 C 0.28125 -0.679688 0.28125 -0.636719 0.28125 -0.589844 C 0.265625 -0.316406 0.273438 -0.0976562 0.460938 -0.0195312 C 0.535156 0.015625 0.597656 0.015625 0.644531 -0.0195312 C 0.882812 -0.191406 0.851562 -1.070312 0.835938 -1.398438 C 0.835938 -1.46875 0.835938 -1.515625 0.835938 -1.550781 L 0.835938 -1.660156 L 0.933594 -1.609375 C 1.097656 -1.542969 1.261719 -1.46875 1.425781 -1.398438 C 1.777344 -1.246094 2.140625 -1.089844 2.488281 -0.925781 C 2.632812 -0.851562 2.78125 -0.761719 2.925781 -0.671875 C 3.214844 -0.492188 3.515625 -0.308594 3.824219 -0.265625 C 4.066406 -0.238281 4.25 -0.363281 4.304688 -0.488281 C 4.351562 -0.601562 4.296875 -0.71875 4.160156 -0.828125 Z M 1.226562 -2.234375 C 1.125 -2.214844 1.019531 -2.199219 0.925781 -2.1875 L 0.835938 -2.171875 L 0.84375 -2.253906 C 0.851562 -2.445312 0.855469 -2.667969 0.863281 -2.894531 C 0.878906 -3.242188 0.890625 -3.605469 0.910156 -3.90625 C 0.917969 -3.949219 0.917969 -3.988281 0.917969 -4.03125 C 0.933594 -4.277344 0.945312 -4.578125 1.152344 -4.722656 C 1.335938 -4.851562 1.664062 -4.824219 1.925781 -4.796875 C 1.988281 -4.792969 2.050781 -4.785156 2.097656 -4.785156 C 2.152344 -4.785156 2.207031 -4.785156 2.269531 -4.777344 C 2.5625 -4.769531 2.90625 -4.765625 3.160156 -4.613281 C 3.40625 -4.46875 3.566406 -4.160156 3.585938 -3.785156 C 3.597656 -3.386719 3.460938 -3.035156 3.230469 -2.859375 C 2.671875 -2.460938 1.90625 -2.335938 1.226562 -2.234375 Z M 1.226562 -2.234375 "/></g></g></g><g fill="#ff914d" fill-opacity="1"><g transform="translate(183.83279, 61.970016)"><g><path d="M 3.359375 -1.414062 C 3.40625 -1.589844 3.398438 -1.808594 3.351562 -1.988281 C 3.195312 -2.5625 2.734375 -2.796875 2.207031 -2.933594 C 1.953125 -3.003906 1.691406 -3.042969 1.441406 -3.113281 C 1.132812 -3.203125 1.007812 -3.394531 1.042969 -3.707031 C 1.089844 -4.160156 1.335938 -4.496094 1.691406 -4.757812 C 1.777344 -4.8125 1.898438 -4.832031 2.007812 -4.847656 C 2.261719 -4.878906 2.476562 -4.769531 2.6875 -4.648438 C 2.769531 -4.601562 2.886719 -4.613281 2.980469 -4.605469 C 2.96875 -4.714844 2.980469 -4.847656 2.925781 -4.929688 C 2.597656 -5.441406 1.863281 -5.585938 1.324219 -5.230469 C 0.855469 -4.921875 0.527344 -4.488281 0.40625 -3.933594 C 0.246094 -3.214844 0.582031 -2.640625 1.296875 -2.433594 C 1.480469 -2.378906 1.679688 -2.351562 1.863281 -2.304688 C 2.0625 -2.25 2.261719 -2.195312 2.441406 -2.097656 C 2.640625 -1.996094 2.699219 -1.789062 2.613281 -1.597656 C 2.277344 -0.851562 1.433594 -0.609375 0.925781 -0.972656 C 0.851562 -1.027344 0.746094 -1.078125 0.65625 -1.082031 C 0.542969 -1.089844 0.378906 -1.089844 0.316406 -1.015625 C 0.261719 -0.945312 0.265625 -0.769531 0.316406 -0.671875 C 0.546875 -0.183594 0.980469 -0.0195312 1.441406 0.0078125 C 2.316406 0.0078125 3.152344 -0.601562 3.359375 -1.414062 Z M 3.359375 -1.414062 "/></g></g></g><g fill="#ff914d" fill-opacity="1"><g transform="translate(187.506993, 61.970016)"><g><path d="M 4.878906 -0.800781 C 4.851562 -1.035156 4.820312 -1.273438 4.742188 -1.496094 C 4.496094 -2.214844 4.25 -2.925781 3.96875 -3.632812 C 3.8125 -4.039062 3.621094 -4.433594 3.378906 -4.804688 C 3.023438 -5.359375 2.523438 -5.382812 2.113281 -4.859375 C 1.914062 -4.613281 1.789062 -4.3125 1.671875 -4.015625 C 1.453125 -3.453125 1.226562 -2.886719 1.054688 -2.304688 C 0.933594 -1.878906 0.460938 -1.617188 0.546875 -1.117188 C 0.554688 -1.089844 0.519531 -1.0625 0.515625 -1.027344 C 0.433594 -0.808594 0.320312 -0.589844 0.28125 -0.363281 C 0.261719 -0.261719 0.335938 -0.0820312 0.425781 -0.0195312 C 0.570312 0.0703125 0.644531 -0.0820312 0.707031 -0.207031 C 0.871094 -0.519531 1.035156 -0.84375 1.214844 -1.152344 C 1.253906 -1.234375 1.355469 -1.316406 1.441406 -1.324219 C 2.277344 -1.390625 3.113281 -1.441406 3.96875 -1.496094 C 4.042969 -1.199219 4.105469 -0.9375 4.179688 -0.683594 C 4.242188 -0.492188 4.367188 -0.347656 4.59375 -0.382812 C 4.824219 -0.425781 4.894531 -0.601562 4.878906 -0.800781 Z M 1.589844 -1.972656 C 2.050781 -2.777344 2.195312 -3.703125 2.707031 -4.523438 C 3.230469 -3.761719 3.421875 -2.933594 3.730469 -2.167969 C 3.007812 -2.105469 2.324219 -2.042969 1.589844 -1.972656 Z M 2.023438 -5.605469 C 2.160156 -5.636719 2.226562 -5.738281 2.234375 -5.882812 C 2.234375 -5.914062 2.234375 -5.949219 2.242188 -6.019531 C 2.316406 -5.992188 2.378906 -5.984375 2.433594 -5.957031 C 2.597656 -5.867188 2.753906 -5.765625 2.925781 -5.683594 C 3.242188 -5.53125 3.6875 -5.628906 3.902344 -5.902344 C 3.96875 -5.992188 4.011719 -6.121094 4.023438 -6.238281 C 4.042969 -6.355469 3.984375 -6.472656 3.859375 -6.511719 C 3.734375 -6.554688 3.660156 -6.476562 3.59375 -6.390625 C 3.460938 -6.210938 3.285156 -6.175781 3.089844 -6.285156 C 2.960938 -6.355469 2.832031 -6.4375 2.695312 -6.503906 C 2.515625 -6.601562 2.324219 -6.628906 2.132812 -6.585938 C 1.714844 -6.5 1.496094 -6.085938 1.699219 -5.757812 C 1.777344 -5.640625 1.878906 -5.574219 2.023438 -5.605469 Z M 2.023438 -5.605469 "/></g></g></g><g fill="#ff914d" fill-opacity="1"><g transform="translate(192.668705, 61.970016)"><g><path d="M 0.972656 -0.824219 C 1.398438 -0.433594 1.90625 -0.210938 2.453125 -0.0703125 C 3.277344 0.144531 3.984375 -0.125 4.59375 -0.679688 C 4.742188 -0.816406 4.878906 -0.980469 5.003906 -1.144531 C 5.722656 -2.113281 5.675781 -3.53125 4.894531 -4.433594 C 4.46875 -4.9375 3.875 -5.160156 3.285156 -5.339844 C 2.277344 -5.636719 1.289062 -5.1875 0.753906 -4.292969 C 0.4375 -3.761719 0.289062 -3.1875 0.28125 -2.652344 C 0.246094 -1.886719 0.464844 -1.300781 0.972656 -0.824219 Z M 1.308594 -3.988281 C 1.582031 -4.484375 2.007812 -4.765625 2.5625 -4.820312 C 2.667969 -4.832031 2.78125 -4.757812 2.886719 -4.710938 C 3.160156 -4.574219 3.421875 -4.40625 3.703125 -4.292969 C 4.269531 -4.050781 4.640625 -3.640625 4.722656 -3.035156 C 4.875 -1.960938 4.257812 -1.019531 3.257812 -0.753906 C 2.550781 -0.570312 1.296875 -1.199219 1.046875 -1.890625 C 0.972656 -2.113281 0.953125 -2.359375 0.910156 -2.597656 C 0.945312 -3.097656 1.070312 -3.558594 1.308594 -3.988281 Z M 1.308594 -3.988281 "/></g></g></g></svg>